<svg viewBox="0 0 16 11" fill="none" xmlns="http://www.w3.org/2000/svg">
<g clip-path="url(#clip0_50_7)">
<path d="M8 4.00363L8.61972 5.91091H10.625L9.00275 7.08932L9.62225 8.9966L8 7.81754L6.37753 8.99638L6.99725 7.0891L5.375 5.91091H7.38028L8 4.00363Z" fill="black"/>
<path d="M1.03414 6.57723C1.01288 6.56373 1 6.5403 1 6.51511C1 6.30287 1.2423 6.18172 1.41209 6.30907L4.81659 8.86244C4.93801 8.95351 5.07379 9.02365 5.21832 9.06999L6.90625 9.61111L7.86672 9.85504C7.95395 9.8772 8.04555 9.8754 8.13184 9.84983L10.766 9.06934C10.9208 9.02348 11.0661 8.95041 11.1953 8.85356L14.5879 6.30907C14.7577 6.18172 15 6.30287 15 6.51511C15 6.5403 14.9871 6.56373 14.9659 6.57723L14.125 7.11111L11 9.5L8.22361 10.8882C8.08284 10.9586 7.91716 10.9586 7.77639 10.8882L5 9.5L1.875 7.11111L1.03414 6.57723Z" fill="black"/>
<path d="M15.9537 5.47685C15.9821 5.49104 16 5.52004 16 5.55177C16 5.76317 15.783 5.90508 15.5893 5.82034L8.20041 2.58768C8.07265 2.53178 7.92735 2.53178 7.79959 2.58768L0.410654 5.82034C0.216971 5.90508 0 5.76317 0 5.55177C0 5.52004 0.0179244 5.49104 0.0463002 5.47685L1 5L5 2.5L7.72265 0.6849C7.8906 0.572933 8.1094 0.572934 8.27735 0.6849L11 2.5L15 5L15.9537 5.47685Z" fill="black"/>
<path d="M15 8L15.2361 8.76399H16L15.382 9.23601L15.618 10L15 9.52771L14.3819 9.99991L14.618 9.23593L14 8.76399H14.7639L15 8Z" fill="black"/>
<path d="M1 8L1.23608 8.76399H2L1.382 9.23601L1.618 10L1 9.52771L0.381917 9.99991L0.618 9.23593L0 8.76399H0.763917L1 8Z" fill="black"/>
</g>
<defs>
<clipPath id="clip0_50_7">
<rect width="16" height="11" fill="white"/>
</clipPath>
</defs>
</svg>
