<svg viewBox="0 0 16 9" fill="none" xmlns="http://www.w3.org/2000/svg">
<g clip-path="url(#clip0_50_7)">
<path d="M8 4.00363L8.61972 5.91091H10.625L9.00275 7.08932L9.62225 8.9966L8 7.81754L6.37753 8.99638L6.99725 7.0891L5.375 5.91091H7.38028L8 4.00363Z" fill="black"/>
<path d="M15.9537 5.47685C15.9821 5.49104 16 5.52004 16 5.55177C16 5.76317 15.783 5.90508 15.5893 5.82034L8.20041 2.58768C8.07265 2.53178 7.92735 2.53178 7.79959 2.58768L0.410654 5.82034C0.216971 5.90508 0 5.76317 0 5.55177C0 5.52004 0.0179244 5.49104 0.0463002 5.47685L1 5L5 2.5L7.72265 0.6849C7.8906 0.572933 8.1094 0.572934 8.27735 0.6849L11 2.5L15 5L15.9537 5.47685Z" fill="black"/>
</g>
<defs>
<clipPath id="clip0_50_7">
<rect width="16" height="9" fill="white"/>
</clipPath>
</defs>
</svg>
