<svg viewBox="0 0 16 11" fill="none" xmlns="http://www.w3.org/2000/svg">
<g clip-path="url(#clip0_50_7)">
<path d="M8 4.00363L8.61972 5.91091H10.625L9.00275 7.08932L9.62225 8.9966L8 7.81754L6.37753 8.99638L6.99725 7.0891L5.375 5.91091H7.38028L8 4.00363Z" fill="black"/>
<path d="M1.03636 6.57864C1.01372 6.56427 1 6.53931 1 6.51249C1 6.29342 1.24414 6.16276 1.42641 6.28428L4 8L5.5 9L7.8143 9.92572C7.93351 9.9734 8.06649 9.9734 8.1857 9.92572L10.5 9L12 8L14.5736 6.28427C14.7559 6.16276 15 6.29342 15 6.51248C15 6.53931 14.9863 6.56426 14.9636 6.57864L14.125 7.11111L10 10L8.22361 10.8882C8.08284 10.9586 7.91716 10.9586 7.77639 10.8882L6 10L1.875 7.11111L1.03636 6.57864Z" fill="black"/>
<path d="M15.9537 5.47685C15.9821 5.49104 16 5.52004 16 5.55177C16 5.76317 15.783 5.90508 15.5893 5.82034L8.20041 2.58768C8.07265 2.53178 7.92735 2.53178 7.79959 2.58768L0.410654 5.82034C0.216971 5.90508 0 5.76317 0 5.55177C0 5.52004 0.0179244 5.49104 0.0463002 5.47685L1 5L5 2.5L7.72265 0.6849C7.8906 0.572933 8.1094 0.572934 8.27735 0.6849L11 2.5L15 5L15.9537 5.47685Z" fill="black"/>
<path d="M15 8L15.2361 8.76399H16L15.382 9.23601L15.618 10L15 9.52771L14.3819 9.99991L14.618 9.23593L14 8.76399H14.7639L15 8Z" fill="black"/>
<path d="M1 8L1.23608 8.76399H2L1.382 9.23601L1.618 10L1 9.52771L0.381917 9.99991L0.618 9.23593L0 8.76399H0.763917L1 8Z" fill="black"/>
</g>
<defs>
<clipPath id="clip0_50_7">
<rect width="16" height="11" fill="white"/>
</clipPath>
</defs>
</svg>
