<svg class="quest-frame" viewBox="0 0 161 82" preserveAspectRatio="none" fill="none" xmlns="http://www.w3.org/2000/svg">
<defs>
  <radialGradient id="frameFade" cx="50%" cy="50%" r="70%">
    <stop offset="0%" stop-color="var(--frame-bg)" stop-opacity="0.9" />
    <stop offset="100%" stop-color="var(--frame-bg)" stop-opacity="0.4" />
  </radialGradient>
</defs>

<g class="frame-bg">
  <path
    class="frame-bg__path"
    fill="url(#frameFade)"
    d="M10.416 0.25H150.586C150.784 0.250041 150.978 0.331265 151.119 0.472656C155.739 5.09191 156.407 5.73927 160.529 9.88184C160.67 10.0229 160.75 10.2157 160.75 10.4131V71.5869C160.75 71.7842 160.67 71.9779 160.529 72.1191C156.422 76.2479 156.229 76.44 151.12 81.5273C150.979 81.6683 150.784 81.75 150.587 81.75H10.416C10.2172 81.75 10.024 81.6692 9.88282 81.5273C6.25988 77.8836 6.05261 77.677 0.474613 72.1201C0.332435 71.9783 0.250084 71.7826 0.250004 71.585V10.416C0.250004 10.2177 0.332361 10.0225 0.474613 9.88086C5.10409 5.27242 5.29419 5.08134 9.88086 0.473633C10.0224 0.33155 10.2178 0.25 10.416 0.25Z"
  />
</g>
<g class="main-frame">
  <path class="main-frame__path" d="M10.416 0.25H150.586C150.784 0.250041 150.978 0.331265 151.119 0.472656C155.739 5.09191 156.407 5.73927 160.529 9.88184C160.67 10.0229 160.75 10.2157 160.75 10.4131V71.5869C160.75 71.7842 160.67 71.9779 160.529 72.1191C156.422 76.2479 156.229 76.44 151.12 81.5273C150.979 81.6683 150.784 81.75 150.587 81.75H10.416C10.2172 81.75 10.024 81.6692 9.88282 81.5273C6.25988 77.8836 6.05261 77.677 0.474613 72.1201C0.332435 71.9783 0.250084 71.7826 0.250004 71.585V10.416C0.250004 10.2177 0.332361 10.0225 0.474613 9.88086C5.10409 5.27242 5.29419 5.08134 9.88086 0.473633C10.0224 0.33155 10.2178 0.25 10.416 0.25Z" stroke="#025774" stroke-width="0.5"/>
</g>
<g class="corner-accent">
  <path d="M161 64L159 66L159 72L151.023 80H145L143 82L152.023 82L161 73L161 64Z" fill="#04EFF9"/>
  <path d="M18 82L16 80L10 80L2.00001 72.0228L2.00001 66L3.8147e-06 64L5.32764e-06 73.0228L9 82L18 82Z" fill="#04EFF9"/>
  <path d="M3.8147e-06 18L2 16L2 10L9.97716 2L16 2L18 0L8.97716 1.11855e-06L7.86805e-07 9L3.8147e-06 18Z" fill="#04EFF9"/>
  <path d="M143 3.8147e-06L145 2L151 2L159 9.97716L159 16L161 18L161 8.97716L152 -3.93403e-07L143 3.8147e-06Z" fill="#04EFF9"/>
</g>
<g class="corner-inner">
  <path d="M141.5 81.5L145 78H150L157 71V61L160.5 57.5" stroke="#014359" stroke-width="0.2"/>
  <path d="M141.564 0.408875L145.064 3.90887H150.064L157.064 10.9089V20.9089L160.564 24.4089" stroke="#014359" stroke-width="0.2"/>
  <path d="M19.5045 0.513977L16.0045 4.01398H11.0045L4.0045 11.014V21.014L0.504501 24.514" stroke="#014359" stroke-width="0.2"/>
  <path d="M19.5554 81.4706L16.0554 77.9706H11.0554L4.0554 70.9706V60.9706L0.555397 57.4706" stroke="#014359" stroke-width="0.2"/>
</g>
<g class="rail">
  <path class="rail__top" d="M141.512 0.5L142.501 1.50006H18.5776L19.5564 0.500063L141.512 0.5Z" fill="#008EB0"/>
  <g class="rail__side">
    <path class="rail__side--right" d="M160.5 57.4118L159.5 58.3672V23.5L160.5 24.5L160.5 57.4118Z" fill="#008EB0"/>
    <path class="rail__side--left" d="M0.504501 24.6662L1.50661 23.5877L1.50661 58.2772L0.504501 57.2861L0.504501 24.6662Z" fill="#008EB0"/>
  </g>
</g>
</svg>
